<svg xmlns="http://www.w3.org/2000/svg" width="1024" height="1024" viewBox="0 0 1024 1024" role="img" aria-label="Legible Cities app icon, a pair of lines stepping down across another pair"><defs><clipPath id="st1024841"><rect width="1024" height="1024" rx="228"/></clipPath></defs><rect width="1024" height="1024" rx="228" fill="#1a1410"/><g clip-path="url(#st1024841)"><path d="M360 -40 V1064" fill="none" stroke="#f05a40" stroke-width="84" stroke-linejoin="round"/><path d="M458 -40 V1064" fill="none" stroke="#6f9bff" stroke-width="84" stroke-linejoin="round"/><path d="M-40 251.0 H578" fill="none" stroke="#1a1410" stroke-width="110" stroke-linejoin="round"/><path d="M-40 349.0 H578" fill="none" stroke="#1a1410" stroke-width="110" stroke-linejoin="round"/><path d="M-40 251.0 H490 A199.0 199.0 0 0 1 689.0 450 V570 A101.0 101.0 0 0 0 790 671.0 H1064" fill="none" stroke="#3fb47c" stroke-width="84" stroke-linejoin="round"/><path d="M-40 349.0 H490 A101.0 101.0 0 0 1 591.0 450 V570 A199.0 199.0 0 0 0 790 769.0 H1064" fill="none" stroke="#f5ad35" stroke-width="84" stroke-linejoin="round"/><circle cx="360" cy="600" r="34" fill="#1a1410" stroke="#f5ead8" stroke-width="13"/><circle cx="458" cy="600" r="34" fill="#1a1410" stroke="#f5ead8" stroke-width="13"/><circle cx="160" cy="251.0" r="34" fill="#1a1410" stroke="#f5ead8" stroke-width="13"/><circle cx="160" cy="349.0" r="34" fill="#1a1410" stroke="#f5ead8" stroke-width="13"/><circle cx="900" cy="671.0" r="34" fill="#1a1410" stroke="#f5ead8" stroke-width="13"/><circle cx="900" cy="769.0" r="34" fill="#1a1410" stroke="#f5ead8" stroke-width="13"/></g></svg>